<svg xmlns="http://www.w3.org/2000/svg" xmlns:xlink="http://www.w3.org/1999/xlink" width="150" zoomAndPan="magnify" viewBox="0 0 112.5 37.5" height="50" preserveAspectRatio="xMidYMid meet" version="1.0"><defs><g/><clipPath id="f24a6e5bc2"><path d="M 36.542969 1.507812 L 54.578125 1.507812 L 54.578125 33 L 36.542969 33 Z M 36.542969 1.507812 " clip-rule="nonzero"/></clipPath><clipPath id="3fda61f4d1"><path d="M 37 32 L 41 32 L 41 35.171875 L 37 35.171875 Z M 37 32 " clip-rule="nonzero"/></clipPath><clipPath id="7d93034dc8"><path d="M 51 32 L 54.578125 32 L 54.578125 35.171875 L 51 35.171875 Z M 51 32 " clip-rule="nonzero"/></clipPath></defs><g clip-path="url(#f24a6e5bc2)"><path fill="#1565c0" d="M 51.058594 7.71875 L 48.367188 7.71875 L 48.367188 2.988281 C 48.652344 2.867188 48.816406 2.621094 48.816406 2.335938 C 48.816406 1.925781 48.488281 1.601562 48.082031 1.601562 L 43.433594 1.601562 C 43.027344 1.601562 42.699219 1.925781 42.699219 2.335938 C 42.699219 2.621094 42.90625 2.90625 43.148438 2.988281 L 43.148438 7.71875 L 40.457031 7.71875 C 38.296875 7.71875 36.542969 9.46875 36.542969 11.628906 L 36.542969 28.710938 C 36.542969 30.875 38.296875 32.625 40.457031 32.625 L 51.058594 32.625 C 53.21875 32.625 54.972656 30.875 54.972656 28.710938 L 54.972656 11.628906 C 54.972656 9.46875 53.21875 7.71875 51.058594 7.71875 Z M 47.675781 7.71875 L 43.800781 7.71875 L 43.800781 3.070312 L 47.675781 3.070312 Z M 47.675781 7.71875 " fill-opacity="1" fill-rule="nonzero"/></g><g clip-path="url(#3fda61f4d1)"><path fill="#1565c0" d="M 38.625 32.625 C 37.847656 32.625 37.238281 33.238281 37.238281 34.011719 C 37.238281 34.785156 37.847656 35.398438 38.625 35.398438 C 39.398438 35.398438 40.011719 34.785156 40.011719 34.011719 C 40.011719 33.238281 39.398438 32.625 38.625 32.625 Z M 38.625 34.542969 C 38.296875 34.542969 38.054688 34.296875 38.054688 33.972656 C 38.054688 33.644531 38.296875 33.402344 38.625 33.402344 C 38.949219 33.402344 39.195312 33.644531 39.195312 33.972656 C 39.195312 34.296875 38.949219 34.542969 38.625 34.542969 Z M 38.625 34.542969 " fill-opacity="1" fill-rule="nonzero"/></g><g clip-path="url(#7d93034dc8)"><path fill="#1565c0" d="M 52.894531 32.625 C 52.117188 32.625 51.507812 33.238281 51.507812 34.011719 C 51.507812 34.785156 52.117188 35.398438 52.894531 35.398438 C 53.667969 35.398438 54.277344 34.785156 54.277344 34.011719 C 54.277344 33.238281 53.625 32.625 52.894531 32.625 Z M 52.894531 34.542969 C 52.566406 34.542969 52.320312 34.296875 52.320312 33.972656 C 52.320312 33.644531 52.566406 33.402344 52.894531 33.402344 C 53.21875 33.402344 53.464844 33.644531 53.464844 33.972656 C 53.421875 34.296875 53.179688 34.542969 52.894531 34.542969 Z M 52.894531 34.542969 " fill-opacity="1" fill-rule="nonzero"/></g><g fill="#ffffff" fill-opacity="1"><g transform="translate(41.119014, 24.48934)"><g><path d="M 9.609375 -8.9375 L 6.203125 -8.9375 L 6.203125 0 L 3.609375 0 L 3.609375 -8.9375 L 0.1875 -8.9375 L 0.1875 -11.203125 L 9.609375 -11.203125 Z M 9.609375 -8.9375 "/></g></g></g><g fill="#1565c0" fill-opacity="1"><g transform="translate(17.209017, 25.711502)"><g><path d="M 0.203125 -10.5 L 2.546875 -10.5 L 5.265625 -2.515625 L 8 -10.5 L 10.3125 -10.5 L 6.5 0 L 4 0 Z M 0.203125 -10.5 "/></g></g></g><g fill="#1565c0" fill-opacity="1"><g transform="translate(27.12674, 25.711502)"><g><path d="M 2.84375 -7.625 C 2.84375 -7.289062 2.984375 -7.03125 3.265625 -6.84375 C 3.546875 -6.664062 3.96875 -6.5 4.53125 -6.34375 C 5.3125 -6.113281 5.972656 -5.859375 6.515625 -5.578125 C 7.066406 -5.304688 7.484375 -4.96875 7.765625 -4.5625 C 8.054688 -4.164062 8.203125 -3.671875 8.203125 -3.078125 C 8.203125 -2.460938 8.050781 -1.910156 7.75 -1.421875 C 7.457031 -0.941406 7.023438 -0.554688 6.453125 -0.265625 C 5.890625 0.015625 5.191406 0.15625 4.359375 0.15625 C 3.367188 0.15625 2.515625 -0.0664062 1.796875 -0.515625 C 1.078125 -0.960938 0.5625 -1.5625 0.25 -2.3125 L 2.125 -3.265625 C 2.332031 -2.816406 2.632812 -2.460938 3.03125 -2.203125 C 3.4375 -1.941406 3.898438 -1.8125 4.421875 -1.8125 C 4.898438 -1.8125 5.285156 -1.914062 5.578125 -2.125 C 5.867188 -2.332031 6.015625 -2.597656 6.015625 -2.921875 C 6.015625 -3.128906 5.957031 -3.304688 5.84375 -3.453125 C 5.726562 -3.597656 5.523438 -3.734375 5.234375 -3.859375 C 4.941406 -3.984375 4.539062 -4.125 4.03125 -4.28125 C 3.46875 -4.445312 2.972656 -4.628906 2.546875 -4.828125 C 2.117188 -5.035156 1.757812 -5.273438 1.46875 -5.546875 C 1.226562 -5.785156 1.035156 -6.066406 0.890625 -6.390625 C 0.742188 -6.722656 0.671875 -7.09375 0.671875 -7.5 C 0.671875 -8.125 0.835938 -8.671875 1.171875 -9.140625 C 1.503906 -9.617188 1.945312 -9.988281 2.5 -10.25 C 3.0625 -10.519531 3.671875 -10.65625 4.328125 -10.65625 C 5.203125 -10.65625 5.957031 -10.457031 6.59375 -10.0625 C 7.238281 -9.664062 7.710938 -9.109375 8.015625 -8.390625 L 6.21875 -7.40625 C 6.050781 -7.832031 5.789062 -8.15625 5.4375 -8.375 C 5.082031 -8.59375 4.679688 -8.703125 4.234375 -8.703125 C 3.796875 -8.703125 3.453125 -8.597656 3.203125 -8.390625 C 2.960938 -8.191406 2.84375 -7.9375 2.84375 -7.625 Z M 2.84375 -7.625 "/></g></g></g><g fill="#1565c0" fill-opacity="1"><g transform="translate(56.184699, 25.711502)"><g><path d="M 5.5 -5.125 C 5.332031 -5.144531 5.164062 -5.15625 5 -5.15625 C 4.53125 -5.15625 4.148438 -5.054688 3.859375 -4.859375 C 3.578125 -4.671875 3.375 -4.414062 3.25 -4.09375 C 3.125 -3.78125 3.0625 -3.425781 3.0625 -3.03125 L 3.0625 0 L 0.96875 0 L 0.96875 -7.15625 L 3.046875 -7.15625 L 3.046875 -6.0625 L 3.0625 -6.0625 C 3.195312 -6.375 3.441406 -6.644531 3.796875 -6.875 C 4.148438 -7.113281 4.578125 -7.234375 5.078125 -7.234375 C 5.242188 -7.234375 5.382812 -7.21875 5.5 -7.1875 Z M 5.5 -5.125 "/></g></g></g><g fill="#1565c0" fill-opacity="1"><g transform="translate(61.290927, 25.711502)"><g><path d="M 2.96875 0.140625 C 2.539062 0.140625 2.144531 0.0546875 1.78125 -0.109375 C 1.414062 -0.285156 1.117188 -0.535156 0.890625 -0.859375 C 0.671875 -1.179688 0.5625 -1.5625 0.5625 -2 L 0.5625 -2.03125 C 0.5625 -2.46875 0.65625 -2.828125 0.84375 -3.109375 C 1.039062 -3.398438 1.296875 -3.625 1.609375 -3.78125 C 1.929688 -3.945312 2.28125 -4.0625 2.65625 -4.125 C 3.03125 -4.1875 3.394531 -4.21875 3.75 -4.21875 L 4.46875 -4.21875 C 4.664062 -4.21875 4.804688 -4.269531 4.890625 -4.375 C 4.984375 -4.476562 5.03125 -4.601562 5.03125 -4.75 C 5.03125 -4.976562 4.9375 -5.179688 4.75 -5.359375 C 4.5625 -5.535156 4.269531 -5.625 3.875 -5.625 C 3.5 -5.625 3.179688 -5.539062 2.921875 -5.375 C 2.671875 -5.21875 2.457031 -4.984375 2.28125 -4.671875 L 0.6875 -5.625 C 0.96875 -6.144531 1.378906 -6.554688 1.921875 -6.859375 C 2.472656 -7.160156 3.15625 -7.3125 3.96875 -7.3125 C 4.570312 -7.3125 5.109375 -7.207031 5.578125 -7 C 6.046875 -6.789062 6.410156 -6.472656 6.671875 -6.046875 C 6.941406 -5.617188 7.078125 -5.082031 7.078125 -4.4375 L 7.078125 0 L 5.140625 0 L 5.140625 -0.890625 L 5.125 -0.890625 C 4.851562 -0.515625 4.523438 -0.25 4.140625 -0.09375 C 3.753906 0.0625 3.363281 0.140625 2.96875 0.140625 Z M 3.578125 -1.390625 C 4.046875 -1.390625 4.398438 -1.523438 4.640625 -1.796875 C 4.890625 -2.078125 5.015625 -2.40625 5.015625 -2.78125 L 5.015625 -2.9375 L 3.75 -2.9375 C 3.476562 -2.9375 3.226562 -2.867188 3 -2.734375 C 2.78125 -2.609375 2.671875 -2.40625 2.671875 -2.125 C 2.671875 -1.875 2.757812 -1.6875 2.9375 -1.5625 C 3.113281 -1.445312 3.328125 -1.390625 3.578125 -1.390625 Z M 3.578125 -1.390625 "/></g></g></g><g fill="#1565c0" fill-opacity="1"><g transform="translate(68.675579, 25.711502)"><g><path d="M 0.1875 -7.15625 L 2.40625 -7.15625 L 4.171875 -2.390625 L 5.9375 -7.15625 L 8.15625 -7.15625 L 5.21875 0 L 3.078125 0 Z M 0.1875 -7.15625 "/></g></g></g><g fill="#1565c0" fill-opacity="1"><g transform="translate(76.408694, 25.711502)"><g><path d="M 2.65625 -3 C 2.726562 -2.550781 2.929688 -2.203125 3.265625 -1.953125 C 3.597656 -1.710938 3.984375 -1.59375 4.421875 -1.59375 C 4.722656 -1.59375 5.023438 -1.664062 5.328125 -1.8125 C 5.628906 -1.96875 5.859375 -2.179688 6.015625 -2.453125 L 7.53125 -1.46875 C 6.9375 -0.382812 5.910156 0.15625 4.453125 0.15625 C 3.722656 0.15625 3.0625 0 2.46875 -0.3125 C 1.875 -0.632812 1.398438 -1.078125 1.046875 -1.640625 C 0.691406 -2.203125 0.515625 -2.851562 0.515625 -3.59375 C 0.515625 -4.113281 0.613281 -4.597656 0.8125 -5.046875 C 1.019531 -5.492188 1.296875 -5.890625 1.640625 -6.234375 C 1.992188 -6.578125 2.398438 -6.84375 2.859375 -7.03125 C 3.316406 -7.226562 3.800781 -7.328125 4.3125 -7.328125 C 5.03125 -7.328125 5.65625 -7.175781 6.1875 -6.875 C 6.71875 -6.570312 7.132812 -6.148438 7.4375 -5.609375 C 7.738281 -5.078125 7.890625 -4.457031 7.890625 -3.75 C 7.890625 -3.625 7.890625 -3.5 7.890625 -3.375 C 7.890625 -3.25 7.878906 -3.125 7.859375 -3 Z M 5.796875 -4.390625 C 5.785156 -4.566406 5.722656 -4.75 5.609375 -4.9375 C 5.492188 -5.132812 5.328125 -5.296875 5.109375 -5.421875 C 4.890625 -5.554688 4.609375 -5.625 4.265625 -5.625 C 3.953125 -5.625 3.679688 -5.550781 3.453125 -5.40625 C 3.234375 -5.269531 3.0625 -5.101562 2.9375 -4.90625 C 2.8125 -4.71875 2.734375 -4.546875 2.703125 -4.390625 Z M 5.796875 -4.390625 "/></g></g></g><g fill="#1565c0" fill-opacity="1"><g transform="translate(84.222225, 25.711502)"><g><path d="M 3.0625 -10.921875 L 3.0625 0 L 0.96875 0 L 0.96875 -10.921875 Z M 3.0625 -10.921875 "/></g></g></g><g fill="#1565c0" fill-opacity="1"><g transform="translate(87.666546, 25.711502)"><g><path d="M 6.359375 -2.15625 C 6.359375 -1.488281 6.109375 -0.9375 5.609375 -0.5 C 5.109375 -0.0625 4.40625 0.15625 3.5 0.15625 C 2.65625 0.15625 1.988281 0.00390625 1.5 -0.296875 C 1.007812 -0.597656 0.632812 -0.992188 0.375 -1.484375 L 1.921875 -2.40625 C 2.046875 -2.15625 2.242188 -1.945312 2.515625 -1.78125 C 2.796875 -1.613281 3.132812 -1.53125 3.53125 -1.53125 C 3.789062 -1.53125 4 -1.582031 4.15625 -1.6875 C 4.3125 -1.789062 4.390625 -1.910156 4.390625 -2.046875 C 4.390625 -2.171875 4.328125 -2.289062 4.203125 -2.40625 C 4.078125 -2.53125 3.757812 -2.644531 3.25 -2.75 C 2.8125 -2.84375 2.398438 -2.984375 2.015625 -3.171875 C 1.628906 -3.359375 1.3125 -3.601562 1.0625 -3.90625 C 0.820312 -4.207031 0.703125 -4.59375 0.703125 -5.0625 C 0.703125 -5.519531 0.832031 -5.914062 1.09375 -6.25 C 1.351562 -6.59375 1.691406 -6.859375 2.109375 -7.046875 C 2.523438 -7.234375 2.972656 -7.328125 3.453125 -7.328125 C 4.140625 -7.328125 4.71875 -7.191406 5.1875 -6.921875 C 5.65625 -6.648438 6 -6.304688 6.21875 -5.890625 L 4.703125 -4.984375 C 4.585938 -5.191406 4.425781 -5.359375 4.21875 -5.484375 C 4.007812 -5.609375 3.738281 -5.671875 3.40625 -5.671875 C 3.175781 -5.671875 2.992188 -5.617188 2.859375 -5.515625 C 2.722656 -5.410156 2.65625 -5.285156 2.65625 -5.140625 C 2.65625 -5.003906 2.722656 -4.878906 2.859375 -4.765625 C 2.992188 -4.648438 3.238281 -4.554688 3.59375 -4.484375 C 4.445312 -4.304688 5.117188 -4.035156 5.609375 -3.671875 C 6.109375 -3.316406 6.359375 -2.8125 6.359375 -2.15625 Z M 6.359375 -2.15625 "/></g></g></g></svg>